<svg width="93" height="56" viewBox="0 0 93 56" fill="none" xmlns="http://www.w3.org/2000/svg">
<g clip-path="url(#clip0_101_410)">
<path d="M16.719 54.9818H53.292V56H16.719V54.9818Z" fill="url(#paint0_linear_101_410)"/>
<path d="M18.5444 23.9302L18.6021 24.3643H19.04H22.672H23.0954L23.1652 23.9466L25.1782 11.8892L27.2189 23.9477L27.2894 24.3643H27.7119H31.344H31.7813L31.8395 23.9309L34.9115 1.06658L34.9876 0.5H34.4159H30.832H30.3863L30.3353 0.942823L29.0149 12.4138L27.1174 0.918569L27.0483 0.5H26.6241H23.68H23.2537L23.1863 0.920959L21.3614 12.32L20.0648 0.943382L20.0142 0.5H19.568H16H15.4291L15.5044 1.0659L18.5444 23.9302ZM37.904 0.5H37.404V1V4.12501V4.62501H37.904H42.268V20.255H37.904H37.404V20.755V23.8643V24.3643H37.904H51.632H52.132V23.8643V20.755V20.255H51.632H47.1559V4.62501H51.632H52.132V4.12501V1V0.5H51.632H37.904ZM73.076 20.755V20.255H72.576H61.73L72.6571 3.72548L72.742 3.59711L72.74 3.44323L72.708 0.99348L72.7016 0.5H72.2081H56.3201H55.8201V1V4.12501V4.62501H56.3201H66.7004L55.7913 21.0755L55.707 21.2025L55.708 21.355L55.724 23.8675L55.7272 24.3643H56.224H72.576H73.076V23.8643V20.755ZM90.384 14.11H90.884V13.61V10.5634V10.0634H90.384H81.252V4.62501H91.92H92.42V4.12501V1V0.5H91.92H76.896H76.396V1V23.8643V24.3643H76.896H92H92.5V23.8643V20.755V20.255H92H81.252V14.11H90.384ZM22.6876 27.9945L22.582 27.6357H22.208H17.44H16.94V28.1357V51V51.5H17.44H21.04H21.54V51V43.2424H21.5401L21.5399 43.2318L21.4075 36.9767L23.6022 44.0965L23.7109 44.4492H24.08H26.08H26.442L26.555 44.1052L29.0904 36.3845L28.9402 43.2314L28.9401 43.2314V43.2424V51V51.5H29.4401H33.056H33.556V51V28.1357V27.6357H33.056H28.2719H27.9089L27.7965 27.981L25.1119 36.2298L22.6876 27.9945ZM51.024 41.2456H51.524V40.7456V37.6991V37.1991H51.024H41.892V31.7607H52.56H53.06V31.2607V28.1357V27.6357H52.56H37.536H37.036V28.1357V51V51.5H37.536H52.64H53.14V51V47.8907V47.3907H52.64H41.892V41.2456H51.024Z" fill="#0D0D0D" stroke="#F2F2F2"/>
<path d="M61.6517 44.8L55.3821 38.6909L61.6517 32.5818L63.1147 34.0582L59.4051 37.6727H72.1012V39.7091H59.4051L63.1147 43.3236L61.6517 44.8Z" fill="url(#paint1_linear_101_410)"/>
<path d="M9.40449 12.7273C9.40449 15.2578 7.29923 17.3091 4.70225 17.3091C2.10527 17.3091 0 15.2578 0 12.7273C0 10.1968 2.10527 8.14545 4.70225 8.14545C7.29923 8.14545 9.40449 10.1968 9.40449 12.7273Z" fill="url(#paint2_linear_101_410)"/>
<path d="M10.4494 22.4C10.4494 24.6493 8.57805 26.4727 6.26962 26.4727C3.96119 26.4727 2.08984 24.6493 2.08984 22.4C2.08984 20.1507 3.96119 18.3273 6.26962 18.3273C8.57805 18.3273 10.4494 20.1507 10.4494 22.4Z" fill="url(#paint3_linear_101_410)"/>
<path d="M14.6293 29.0182C14.6293 30.424 13.4597 31.5636 12.0169 31.5636C10.5741 31.5636 9.40454 30.424 9.40454 29.0182C9.40454 27.6124 10.5741 26.4727 12.0169 26.4727C13.4597 26.4727 14.6293 27.6124 14.6293 29.0182Z" fill="url(#paint4_linear_101_410)"/>
</g>
<defs>
<linearGradient id="paint0_linear_101_410" x1="16.719" y1="55.4909" x2="53.292" y2="55.4909" gradientUnits="userSpaceOnUse">
<stop stop-color="#B0C7DC"/>
<stop offset="0.446234" stop-color="#4596E0"/>
<stop offset="0.831735" stop-color="#1C7BD2"/>
</linearGradient>
<linearGradient id="paint1_linear_101_410" x1="55.3821" y1="38.6909" x2="72.1012" y2="38.6909" gradientUnits="userSpaceOnUse">
<stop stop-color="#B0C7DC"/>
<stop offset="0.5" stop-color="#4596E0"/>
<stop offset="1" stop-color="#1C7BD2"/>
</linearGradient>
<linearGradient id="paint2_linear_101_410" x1="7.31461" y1="6.61817" x2="16.8181" y2="28.6914" gradientUnits="userSpaceOnUse">
<stop stop-color="#B0C7DC"/>
<stop offset="0.76781" stop-color="#4596E0"/>
<stop offset="1" stop-color="#1C7BD2"/>
</linearGradient>
<linearGradient id="paint3_linear_101_410" x1="7.31456" y1="6.61818" x2="16.8181" y2="28.6914" gradientUnits="userSpaceOnUse">
<stop stop-color="#B0C7DC"/>
<stop offset="0.76781" stop-color="#4596E0"/>
<stop offset="1" stop-color="#1C7BD2"/>
</linearGradient>
<linearGradient id="paint4_linear_101_410" x1="7.31465" y1="6.61817" x2="16.8182" y2="28.6914" gradientUnits="userSpaceOnUse">
<stop stop-color="#B0C7DC"/>
<stop offset="0.76781" stop-color="#4596E0"/>
<stop offset="1" stop-color="#1C7BD2"/>
</linearGradient>
<clipPath id="clip0_101_410">
<rect width="93" height="56" fill="white"/>
</clipPath>
</defs>
</svg>
