<svg width="112" height="30" viewBox="0 0 112 30" fill="none" xmlns="http://www.w3.org/2000/svg">
<mask id="mask0_134_386" style="mask-type:luminance" maskUnits="userSpaceOnUse" x="0" y="0" width="30" height="30">
<path d="M30 0H0V30H30V0Z" fill="white"/>
</mask>
<g mask="url(#mask0_134_386)">
<path d="M15 30C23.2843 30 30 23.2843 30 15C30 6.71573 23.2843 0 15 0C6.71573 0 0 6.71573 0 15C0 23.2843 6.71573 30 15 30Z" fill="url(#paint0_linear_134_386)"/>
<g filter="url(#filter0_d_134_386)">
<path d="M6.9679 25.599V24.085L8.19254 23.8367V15.7062L6.9679 15.4579V13.9359H8.19254H12.0506L15.0521 21.8501H15.1002L18.0217 13.9359H23.0724V15.4579L21.8397 15.7062V23.8367L23.0724 24.085V25.599H18.0617V24.085L19.3424 23.8367V21.9383L19.3904 16.5712L19.3424 16.5633L15.9486 25.5188H13.9716L10.5138 16.6515L10.4577 16.6594L10.6259 21.6338V23.8367L11.9865 24.085V25.599H6.9679Z" fill="#F2F2F2"/>
<path d="M10.2415 15.9745L7.54413 5.95346L6.28748 5.83331V4.31134H11.2501V5.83331L9.96939 6.01755L11.2901 11.4727L11.5142 12.3779H11.5623L11.8104 11.4727L14.0996 4.31134H15.9246L18.3178 11.729L18.5499 12.4578H18.5979L18.79 11.729L20.1748 6.01755L18.8461 5.83331V4.31134H23.7126V5.83331L22.536 5.95346L19.7666 15.9745H17.4613L15.3482 9.53413L15.0921 8.62892H15.0441L14.7319 9.5661L12.5868 15.9745H10.2415Z" fill="#F2F2F2"/>
</g>
</g>
<path d="M37.1172 23L33.8164 10.5391L32.4102 10.3926V8.78125H37.8984V10.3926L36.375 10.6172L38.084 17.7266L38.416 19.1133L38.4746 19.123L38.875 17.7266L41.6973 8.78125H43.7188L46.6289 17.9219L47.0098 19.2207H47.0684L47.4102 17.9219L49.1582 10.6172L47.5566 10.3926V8.78125H52.9375V10.3926L51.6289 10.5391L48.3281 23H45.8965L43.123 14.3672L42.7715 13.1367H42.7129L42.332 14.3965L39.5293 23H37.1172ZM53.9043 23V21.3984L55.3203 21.1055V14.3379L53.7871 14.0449V12.4336H57.9766V21.1055L59.3926 21.3984V23H53.9043ZM55.2227 10.1191V7.76562H57.9766V10.1191H55.2227ZM60.6523 23V21.3887L66.209 14.3184H63.123L62.8203 16.1152H60.8672V12.4336H69.4023V14.1523L64.0801 21.0762H67.3906L67.7812 19.1719H69.666V23H60.6523ZM75.9453 23.2051C74.9427 23.2051 74.0671 22.9837 73.3184 22.541C72.5762 22.0918 72 21.4766 71.5898 20.6953C71.1797 19.9076 70.9746 19.0091 70.9746 18V17.5996C70.9746 16.5645 71.1699 15.6432 71.5605 14.8359C71.9577 14.0221 72.5111 13.3874 73.2207 12.9316C73.9303 12.4694 74.7507 12.2383 75.6816 12.2383C76.6387 12.2383 77.4427 12.4303 78.0938 12.8145C78.7448 13.1921 79.2363 13.7357 79.5684 14.4453C79.9004 15.1549 80.0664 16.0078 80.0664 17.0039V18.4785H73.7285L73.709 18.5371C73.735 19.0449 73.849 19.4974 74.0508 19.8945C74.2526 20.2852 74.5358 20.5944 74.9004 20.8223C75.265 21.0501 75.7077 21.1641 76.2285 21.1641C76.7819 21.1641 77.2865 21.0924 77.7422 20.9492C78.2044 20.806 78.6439 20.5944 79.0605 20.3145L79.8223 21.9648C79.3991 22.3164 78.862 22.6126 78.2109 22.8535C77.5599 23.0879 76.8047 23.2051 75.9453 23.2051ZM73.7578 16.6719H77.5664V16.418C77.5664 15.9753 77.5013 15.5911 77.3711 15.2656C77.2409 14.9336 77.0391 14.6764 76.7656 14.4941C76.4987 14.3118 76.1504 14.2207 75.7207 14.2207C75.3301 14.2207 74.9948 14.3281 74.7148 14.543C74.4349 14.7513 74.2135 15.0378 74.0508 15.4023C73.888 15.7604 73.7806 16.1673 73.7285 16.623L73.7578 16.6719ZM81.4141 23V21.3984L82.9375 21.1055V10.6855L81.4141 10.3926V8.78125H82.9375H86.8145L90.8379 18.8789H90.8965L94.793 8.78125H100.223V10.3926L98.6895 10.6855V21.1055L100.223 21.3984V23H94.5V21.3984L96.1113 21.1055V18.0879L96.1504 11.7695L96.1016 11.7598L91.7656 22.7363H89.8027L85.3594 11.8281L85.3008 11.8379L85.457 17.8535V21.1055L87.1367 21.3984V23H81.4141ZM106.434 23.2051C105.431 23.2051 104.555 22.9837 103.807 22.541C103.064 22.0918 102.488 21.4766 102.078 20.6953C101.668 19.9076 101.463 19.0091 101.463 18V17.5996C101.463 16.5645 101.658 15.6432 102.049 14.8359C102.446 14.0221 102.999 13.3874 103.709 12.9316C104.419 12.4694 105.239 12.2383 106.17 12.2383C107.127 12.2383 107.931 12.4303 108.582 12.8145C109.233 13.1921 109.725 13.7357 110.057 14.4453C110.389 15.1549 110.555 16.0078 110.555 17.0039V18.4785H104.217L104.197 18.5371C104.223 19.0449 104.337 19.4974 104.539 19.8945C104.741 20.2852 105.024 20.5944 105.389 20.8223C105.753 21.0501 106.196 21.1641 106.717 21.1641C107.27 21.1641 107.775 21.0924 108.23 20.9492C108.693 20.806 109.132 20.5944 109.549 20.3145L110.311 21.9648C109.887 22.3164 109.35 22.6126 108.699 22.8535C108.048 23.0879 107.293 23.2051 106.434 23.2051ZM104.246 16.6719H108.055V16.418C108.055 15.9753 107.99 15.5911 107.859 15.2656C107.729 14.9336 107.527 14.6764 107.254 14.4941C106.987 14.3118 106.639 14.2207 106.209 14.2207C105.818 14.2207 105.483 14.3281 105.203 14.543C104.923 14.7513 104.702 15.0378 104.539 15.4023C104.376 15.7604 104.269 16.1673 104.217 16.623L104.246 16.6719Z" fill="#0D0D0D"/>
<defs>
<filter id="filter0_d_134_386" x="1.28748" y="0.31134" width="33.4252" height="37.2876" filterUnits="userSpaceOnUse" color-interpolation-filters="sRGB">
<feFlood flood-opacity="0" result="BackgroundImageFix"/>
<feColorMatrix in="SourceAlpha" type="matrix" values="0 0 0 0 0 0 0 0 0 0 0 0 0 0 0 0 0 0 127 0" result="hardAlpha"/>
<feOffset dx="3" dy="4"/>
<feGaussianBlur stdDeviation="4"/>
<feComposite in2="hardAlpha" operator="out"/>
<feColorMatrix type="matrix" values="0 0 0 0 0 0 0 0 0 0 0 0 0 0 0 0 0 0 0.25 0"/>
<feBlend mode="normal" in2="BackgroundImageFix" result="effect1_dropShadow_134_386"/>
<feBlend mode="normal" in="SourceGraphic" in2="effect1_dropShadow_134_386" result="shape"/>
</filter>
<linearGradient id="paint0_linear_134_386" x1="15" y1="0" x2="15" y2="30" gradientUnits="userSpaceOnUse">
<stop stop-color="#2070BC"/>
<stop offset="0.375" stop-color="#226CB3"/>
<stop offset="0.7" stop-color="#24639E"/>
<stop offset="0.92" stop-color="#22578A"/>
</linearGradient>
</defs>
</svg>
